<svg width="116" height="33" viewBox="0 0 116 33" fill="none" xmlns="http://www.w3.org/2000/svg"> <path d="M1.015 28V6.09H6.475C10.605 6.09 12.915 7.035 12.915 12.18V13.475C12.915 16.59 12.005 18.095 10.36 18.795L12.81 28H8.575L6.265 19.355H5.145V28H1.015ZM5.145 16.1H6.58C8.61 16.1 8.82 15.505 8.82 13.545V12.11C8.82 10.325 8.61 9.52 6.545 9.52H5.145V16.1ZM20.7818 28.14C16.4068 28.14 14.4818 26.11 14.4818 21.665V12.32C14.4818 8.155 16.2668 5.915 20.8518 5.915C24.0718 5.915 26.1718 7.07 26.8368 10.115L22.6718 11.235C22.5318 10.115 22.0418 9.45 20.6418 9.45C18.8918 9.45 18.5068 10.535 18.5068 12.285V14.07C19.2768 13.23 20.3268 12.88 21.8668 12.88C25.6818 12.88 27.1168 14.77 27.1168 19.495V21.595C27.1168 26.005 25.2618 28.14 20.7818 28.14ZM20.7818 24.71C22.5668 24.71 23.0568 23.8 23.0568 21.7V19.18C23.0568 17.045 22.6368 16.24 20.7818 16.24C19.0668 16.24 18.5068 17.045 18.5068 19.215V21.7C18.5068 23.975 19.1018 24.71 20.7818 24.71Z" fill="white"/> <rect x="31" width="85" height="33" fill="url(#paint0_linear_154_2)"/> <path d="M40.685 28.14C36.8 28.14 34.665 26.285 34.665 21.595V12.32C34.665 7.91 36.66 5.915 40.93 5.915C45.725 5.915 46.915 7.98 47.195 12.81L42.995 13.16C42.925 10.465 42.89 9.555 40.86 9.555C39.46 9.555 38.83 10.29 38.83 12.285V21.77C38.83 23.765 39.18 24.605 40.965 24.605C42.855 24.605 42.96 24.045 43.1 20.79L47.23 21.175C46.915 25.55 46.075 28.14 40.685 28.14ZM47.2625 28L51.3575 6.02H55.9425L60.0725 28H55.9775L55.2425 24.01H52.0225L51.2875 28H47.2625ZM52.3725 20.825H54.9275L54.1925 15.82L53.7025 12.39L53.1775 15.82L52.3725 20.825ZM61.1625 28V6.09H66.1675L69.2825 16.905V6.09H73.2375V28H69.1775L65.0825 14.875V28H61.1625ZM78.4287 28.07L74.2987 6.09H78.4287L80.0387 15.26L80.7737 20.37L81.4737 15.295L83.1187 6.09H87.1087L83.0137 28.07H78.4287ZM86.3299 28L90.4249 6.02H95.0099L99.1399 28H95.0449L94.3099 24.01H91.0899L90.3549 28H86.3299ZM91.4399 20.825H93.9949L93.2599 15.82L92.7699 12.39L92.2449 15.82L91.4399 20.825ZM105.525 28.14C100.45 28.14 99.3297 25.48 99.1897 21.56L103.39 21.035C103.495 24.115 103.915 24.535 105.665 24.535C107.345 24.535 107.695 23.695 107.695 22.505C107.695 21 106.645 20.265 104.055 18.165C101.36 16.065 99.5047 14.455 99.5047 11.48C99.5047 7.56 101.815 5.915 105.455 5.915C109.865 5.915 111.195 7.735 111.615 11.585L107.485 11.97C107.38 10.185 106.96 9.555 105.56 9.555C104.055 9.555 103.635 10.325 103.635 11.34C103.635 12.6 104.475 13.265 106.75 15.085C109.725 17.5 111.86 19.075 111.86 22.505C111.86 26.04 110.18 28.14 105.525 28.14Z" fill="white"/> <defs> <linearGradient id="paint0_linear_154_2" x1="31" y1="16.5" x2="116" y2="16.5" gradientUnits="userSpaceOnUse"> <stop stop-color="#E85014"/> <stop offset="0.192308" stop-color="#FF711D"/> <stop offset="0.360577" stop-color="#CA5917" stop-opacity="0.791667"/> <stop offset="1" stop-opacity="0"/> </linearGradient> </defs> </svg>